<svg width="50" height="54" viewBox="0 0 50 54" fill="none" xmlns="http://www.w3.org/2000/svg">
<path d="M45.9465 4.88332C46.7335 5.72658 47.3272 6.74665 47.6828 7.86629C48.0383 8.98593 48.1463 10.1758 47.9986 11.3457C47.851 12.5156 47.4514 13.6349 46.8303 14.6189C46.2092 15.6028 45.3829 16.4256 44.4138 17.0248C37.4279 21.3336 29.276 23.087 21.2376 22.0097C13.1991 20.9325 5.72911 17.0856 0 11.0728L10.34 0C13.7638 3.59093 18.2228 5.89415 23.0234 6.55137C27.824 7.20859 32.6971 6.18297 36.8846 3.63404C38.31 2.75286 39.9751 2.39602 41.6157 2.62008C43.2564 2.84414 44.7789 3.63628 45.9418 4.87095L45.9465 4.88332Z" fill="#8E0DED"/>
<path d="M45.9014 4.83383C44.5156 3.38073 42.6365 2.56445 40.6772 2.56445C38.7178 2.56445 36.8387 3.38073 35.4529 4.83383L4.0909 37.7356C2.70581 39.1895 1.92773 41.1609 1.92773 43.2164C1.92773 45.2719 2.70581 47.2433 4.0909 48.6971V48.6971C4.77677 49.4172 5.59118 49.9885 6.48758 50.3782C7.38399 50.768 8.34481 50.9686 9.31515 50.9686C10.2855 50.9686 11.2463 50.768 12.1427 50.3782C13.0391 49.9885 13.8535 49.4172 14.5394 48.6971L45.9014 15.7953C46.5878 15.0758 47.1323 14.2214 47.5038 13.281C47.8753 12.3406 48.0665 11.3326 48.0665 10.3146C48.0665 9.2966 47.8753 8.2886 47.5038 7.34818C47.1323 6.40776 46.5878 5.55337 45.9014 4.83383Z" fill="url(#paint0_linear_390_3017)"/>
<path d="M4.05366 48.6353C3.2666 47.7924 2.67271 46.7727 2.31699 45.6534C1.96127 44.534 1.85304 43.3444 2.00051 42.1747C2.14798 41.005 2.54727 39.8858 3.16814 38.902C3.78901 37.9182 4.61517 37.0955 5.58403 36.4963C12.5704 32.1882 20.7222 30.4351 28.7608 31.5118C36.7993 32.5886 44.2698 36.4344 50.0002 42.4458L39.6554 53.5211C36.2317 49.9302 31.7727 47.627 26.9721 46.9697C22.1715 46.3125 17.2984 47.3381 13.1109 49.8871C11.6838 50.766 10.018 51.1201 8.37734 50.8934C6.73669 50.6666 5.21509 49.872 4.05366 48.6353V48.6353Z" fill="url(#paint1_linear_390_3017)"/>
<defs>
<linearGradient id="paint0_linear_390_3017" x1="47.5898" y1="7.26559" x2="14.3458" y2="33.3316" gradientUnits="userSpaceOnUse">
<stop stop-color="#DD1C66"/>
<stop offset="0.15" stop-color="#DD1C66" stop-opacity="0.84"/>
<stop offset="0.57" stop-color="#E91E63" stop-opacity="0.63"/>
<stop offset="0.87" stop-color="#E91E63" stop-opacity="0.11"/>
<stop offset="1" stop-color="#E91E63" stop-opacity="0"/>
</linearGradient>
<linearGradient id="paint1_linear_390_3017" x1="2.53036" y1="42.5868" x2="49.6939" y2="42.2586" gradientUnits="userSpaceOnUse">
<stop stop-color="#FA72A1"/>
<stop offset="0.42" stop-color="#EF2C6E"/>
<stop offset="0.815" stop-color="#4B0082"/>
</linearGradient>
</defs>
</svg>
