<svg width="91" height="94" viewBox="0 0 91 94" fill="none" xmlns="http://www.w3.org/2000/svg">
<path d="M83.5752 8.85776C85.0066 10.3198 86.0866 12.0885 86.7333 14.0297C87.3801 15.971 87.5765 18.034 87.3079 20.0624C87.0393 22.0909 86.3125 24.0316 85.1828 25.7376C84.053 27.4436 82.5499 28.8701 80.7872 29.9092C68.0801 37.3799 53.2521 40.42 38.6304 38.5522C24.0087 36.6844 10.421 30.0145 0 19.5894L18.8082 0.390869C25.0359 6.61696 33.1466 10.6104 41.8788 11.7499C50.6109 12.8894 59.4748 11.1111 67.0917 6.69171C69.6846 5.16388 72.7133 4.54518 75.6976 4.93366C78.6819 5.32215 81.4513 6.6956 83.5666 8.83631L83.5752 8.85776Z" fill="#9C5AFF"/>
<path d="M83.4937 8.772C80.973 6.25257 77.5549 4.83728 73.991 4.83728C70.427 4.83728 67.009 6.25257 64.4882 8.772L7.4418 65.8184C4.92237 68.3392 3.50708 71.7572 3.50708 75.3212C3.50708 78.8851 4.92237 82.3032 7.4418 84.8239V84.8239C8.68938 86.0724 10.1708 87.0629 11.8013 87.7386C13.4318 88.4144 15.1795 88.7622 16.9445 88.7622C18.7095 88.7622 20.4573 88.4144 22.0878 87.7386C23.7183 87.0629 25.1997 86.0724 26.4473 84.8239L83.4937 27.7775C84.7422 26.5299 85.7327 25.0485 86.4084 23.418C87.0842 21.7875 87.432 20.0397 87.432 18.2747C87.432 16.5097 87.0842 14.762 86.4084 13.1315C85.7327 11.501 84.7422 10.0196 83.4937 8.772Z" fill="url(#paint0_linear_102_113)"/>
<path d="M7.37315 84.7166C5.94152 83.2552 4.86126 81.4872 4.21421 79.5465C3.56716 77.6057 3.3703 75.5431 3.63854 73.515C3.90678 71.4869 4.63308 69.5465 5.76242 67.8407C6.89177 66.1349 8.39452 64.7084 10.1568 63.6695C22.8648 56.2001 37.6927 53.1604 52.3146 55.0273C66.9364 56.8942 80.5249 63.5622 90.9483 73.985L72.1316 93.1878C65.9039 86.9617 57.7931 82.9683 49.061 81.8288C40.3288 80.6893 31.4649 82.4675 23.848 86.887C21.2522 88.4108 18.2221 89.0249 15.2378 88.6317C12.2535 88.2386 9.48575 86.8608 7.37315 84.7166V84.7166Z" fill="url(#paint1_linear_102_113)"/>
<defs>
<linearGradient id="paint0_linear_102_113" x1="86.5648" y1="12.9883" x2="28.3259" y2="60.8944" gradientUnits="userSpaceOnUse">
<stop stop-color="#22BFFF"/>
<stop offset="0.15" stop-color="#22BFFF" stop-opacity="0.84"/>
<stop offset="0.57" stop-color="#22BFFF" stop-opacity="0.39"/>
<stop offset="0.87" stop-color="#22BFFF" stop-opacity="0.11"/>
<stop offset="1" stop-color="#22BFFF" stop-opacity="0"/>
</linearGradient>
<linearGradient id="paint1_linear_102_113" x1="4.60233" y1="74.2295" x2="90.3907" y2="73.6033" gradientUnits="userSpaceOnUse">
<stop stop-color="#FFC99E"/>
<stop offset="0.67" stop-color="#FF87A4"/>
<stop offset="1" stop-color="#FF6BA6"/>
</linearGradient>
</defs>
</svg>
